<mxfile host="app.diagrams.net" modified="2024-07-17T11:46:27.693Z" agent="Mozilla/5.0 (X11; Linux x86_64) AppleWebKit/537.36 (KHTML, like Gecko) Chrome/125.0.0.0 Safari/537.36" etag="tEwKzns3yr1JiuvGakeV" version="24.6.4" type="github">
  <diagram name="Page-1" id="SC-BxqLPSgjXVjuMUX3Q">
    <mxGraphModel dx="1434" dy="752" grid="1" gridSize="10" guides="1" tooltips="1" connect="1" arrows="1" fold="1" page="1" pageScale="1" pageWidth="850" pageHeight="1100" math="0" shadow="0">
      <root>
        <mxCell id="0" />
        <mxCell id="1" parent="0" />
        <mxCell id="a-muzrm8eiG3wozJ5mPS-7" style="edgeStyle=orthogonalEdgeStyle;rounded=0;orthogonalLoop=1;jettySize=auto;html=1;entryX=0;entryY=0.5;entryDx=0;entryDy=0;" edge="1" parent="1" source="rX-7Qq154gYQwjGp52s8-1" target="rX-7Qq154gYQwjGp52s8-6">
          <mxGeometry relative="1" as="geometry" />
        </mxCell>
        <mxCell id="rX-7Qq154gYQwjGp52s8-1" value="Linear support vector classifier" style="rounded=0;whiteSpace=wrap;html=1;" parent="1" vertex="1">
          <mxGeometry x="42" y="80" width="190" height="40" as="geometry" />
        </mxCell>
        <mxCell id="a-muzrm8eiG3wozJ5mPS-6" value="" style="edgeStyle=orthogonalEdgeStyle;rounded=0;orthogonalLoop=1;jettySize=auto;html=1;entryX=0;entryY=0.5;entryDx=0;entryDy=0;" edge="1" parent="1" source="rX-7Qq154gYQwjGp52s8-2" target="rX-7Qq154gYQwjGp52s8-7">
          <mxGeometry relative="1" as="geometry" />
        </mxCell>
        <mxCell id="rX-7Qq154gYQwjGp52s8-2" value="C-means clustering" style="rounded=0;whiteSpace=wrap;html=1;" parent="1" vertex="1">
          <mxGeometry x="42" y="195" width="190" height="40" as="geometry" />
        </mxCell>
        <mxCell id="rX-7Qq154gYQwjGp52s8-8" style="edgeStyle=orthogonalEdgeStyle;rounded=0;orthogonalLoop=1;jettySize=auto;html=1;" parent="1" source="rX-7Qq154gYQwjGp52s8-6" edge="1">
          <mxGeometry relative="1" as="geometry">
            <mxPoint x="600" y="150" as="targetPoint" />
          </mxGeometry>
        </mxCell>
        <mxCell id="rX-7Qq154gYQwjGp52s8-6" value="Weights for event features" style="rounded=0;whiteSpace=wrap;html=1;" parent="1" vertex="1">
          <mxGeometry x="380" y="80" width="190" height="40" as="geometry" />
        </mxCell>
        <mxCell id="rX-7Qq154gYQwjGp52s8-9" style="edgeStyle=orthogonalEdgeStyle;rounded=0;orthogonalLoop=1;jettySize=auto;html=1;" parent="1" source="rX-7Qq154gYQwjGp52s8-7" edge="1">
          <mxGeometry relative="1" as="geometry">
            <mxPoint x="600" y="190" as="targetPoint" />
          </mxGeometry>
        </mxCell>
        <mxCell id="rX-7Qq154gYQwjGp52s8-7" value="Detected roles" style="rounded=0;whiteSpace=wrap;html=1;" parent="1" vertex="1">
          <mxGeometry x="350" y="195" width="190" height="40" as="geometry" />
        </mxCell>
        <mxCell id="rX-7Qq154gYQwjGp52s8-14" style="edgeStyle=orthogonalEdgeStyle;rounded=0;orthogonalLoop=1;jettySize=auto;html=1;exitX=1;exitY=0.5;exitDx=0;exitDy=0;entryX=0;entryY=0.5;entryDx=0;entryDy=0;" parent="1" source="rX-7Qq154gYQwjGp52s8-10" target="rX-7Qq154gYQwjGp52s8-13" edge="1">
          <mxGeometry relative="1" as="geometry" />
        </mxCell>
        <mxCell id="rX-7Qq154gYQwjGp52s8-10" value="Player rating based on&lt;div&gt;roles&lt;/div&gt;" style="rounded=0;whiteSpace=wrap;html=1;" parent="1" vertex="1">
          <mxGeometry x="510" y="150" width="190" height="40" as="geometry" />
        </mxCell>
        <mxCell id="rX-7Qq154gYQwjGp52s8-13" value="Suggesting players on each role with&lt;div&gt;&amp;nbsp;score greater than average(roleCluster)&lt;/div&gt;" style="rounded=0;whiteSpace=wrap;html=1;" parent="1" vertex="1">
          <mxGeometry x="800" y="120" width="160" height="100" as="geometry" />
        </mxCell>
        <mxCell id="a-muzrm8eiG3wozJ5mPS-1" value="coefficients from lsvc" style="text;html=1;align=center;verticalAlign=middle;whiteSpace=wrap;rounded=0;" vertex="1" parent="1">
          <mxGeometry x="240" y="70" width="130" height="30" as="geometry" />
        </mxCell>
      </root>
    </mxGraphModel>
  </diagram>
</mxfile>
